<mxfile host="app.diagrams.net" modified="2021-12-07T20:05:35.408Z" agent="5.0 (Windows NT 10.0; Win64; x64) AppleWebKit/537.36 (KHTML, like Gecko) Chrome/96.0.4664.45 Safari/537.36" etag="WTLV0RXK6DppXpaoVygq" version="15.9.1" type="github">
  <diagram id="erYaagtnKeP15xxfokOB" name="Page-1">
    <mxGraphModel dx="1278" dy="579" grid="1" gridSize="10" guides="1" tooltips="1" connect="1" arrows="1" fold="1" page="1" pageScale="1" pageWidth="850" pageHeight="1100" math="0" shadow="0">
      <root>
        <mxCell id="0" />
        <mxCell id="1" parent="0" />
        <mxCell id="BoZv2BU8nOlil_5F641C-5" style="edgeStyle=orthogonalEdgeStyle;rounded=0;orthogonalLoop=1;jettySize=auto;html=1;" edge="1" parent="1" source="BoZv2BU8nOlil_5F641C-1" target="BoZv2BU8nOlil_5F641C-3">
          <mxGeometry relative="1" as="geometry" />
        </mxCell>
        <mxCell id="BoZv2BU8nOlil_5F641C-1" value="Actor" style="shape=umlActor;verticalLabelPosition=bottom;verticalAlign=top;html=1;outlineConnect=0;" vertex="1" parent="1">
          <mxGeometry x="410" y="30" width="30" height="60" as="geometry" />
        </mxCell>
        <mxCell id="BoZv2BU8nOlil_5F641C-2" value="Choose currency" style="text;html=1;strokeColor=none;fillColor=none;align=center;verticalAlign=middle;whiteSpace=wrap;rounded=0;" vertex="1" parent="1">
          <mxGeometry x="70" y="45" width="60" height="30" as="geometry" />
        </mxCell>
        <mxCell id="BoZv2BU8nOlil_5F641C-7" value="" style="edgeStyle=orthogonalEdgeStyle;rounded=0;orthogonalLoop=1;jettySize=auto;html=1;" edge="1" parent="1" source="BoZv2BU8nOlil_5F641C-3" target="BoZv2BU8nOlil_5F641C-6">
          <mxGeometry relative="1" as="geometry" />
        </mxCell>
        <mxCell id="BoZv2BU8nOlil_5F641C-3" value="Select crypto currency" style="rounded=0;whiteSpace=wrap;html=1;" vertex="1" parent="1">
          <mxGeometry x="365" y="230" width="120" height="60" as="geometry" />
        </mxCell>
        <mxCell id="BoZv2BU8nOlil_5F641C-9" value="" style="edgeStyle=orthogonalEdgeStyle;rounded=0;orthogonalLoop=1;jettySize=auto;html=1;" edge="1" parent="1" source="BoZv2BU8nOlil_5F641C-6" target="BoZv2BU8nOlil_5F641C-8">
          <mxGeometry relative="1" as="geometry" />
        </mxCell>
        <mxCell id="BoZv2BU8nOlil_5F641C-6" value="Find crypto value in $" style="whiteSpace=wrap;html=1;rounded=0;" vertex="1" parent="1">
          <mxGeometry x="365" y="400" width="120" height="60" as="geometry" />
        </mxCell>
        <mxCell id="BoZv2BU8nOlil_5F641C-8" value="Add to wallet" style="whiteSpace=wrap;html=1;rounded=0;" vertex="1" parent="1">
          <mxGeometry x="365" y="560" width="120" height="60" as="geometry" />
        </mxCell>
      </root>
    </mxGraphModel>
  </diagram>
</mxfile>
